{"title":"The Road (2009) DVDRip XviD-MAX","uid":5431747,"size":944386666,"categoryP":"video","categoryS":"movies","magnet":"?xt=urn:btih:411af171ead0ee5b905a7752f17ce37a8f6f93f4&amp;dn=The+Road+%282009%29+DVDRip+XviD-MAX&amp;tr=udp%3A%2F%2Ftracker.openbittorrent.com%3A80&amp;tr=udp%3A%2F%2Fopen.demonii.com%3A1337&amp;tr=udp%3A%2F%2Ftracker.coppersurfer.tk%3A6969&amp;tr=udp%3A%2F%2Fexodus.desync.com%3A6969","seeders":4,"leechers":0,"uploader":"extremezone","files":-1,"time":1268450129,"description":"The Road (2009) DVDRip XviD-MAX \n\nFormat                           : AVI\nFormat/Info                      : Audio Video Interleave\nFile size                        : 900 MiB\nDuration                         : 1h 47mn\nOverall bit rate                 : 1 173 Kbps\nWriting application              : VirtualDubMod 1.5.10.2 (build 2542/release)\nWriting library                  : VirtualDubMod build 2542/release\nOriginal source form             : MAX TORRENTZ\nCopyright                        : SIGISMUNT\n\nVideo\nID                               : 0\nFormat                           : MPEG-4 Visual\nFormat settings, BVOP            : No\nFormat settings, QPel            : No\nFormat settings, GMC             : No warppoints\nFormat settings, Matrix          : Default (H.263)\nCodec ID                         : DX50\nCodec ID/Hint                    : DivX 5\nDuration                         : 1h 47mn\nBit rate                         : 780 Kbps\nWidth                            : 700 pixels\nHeight                           : 320 pixels\nDisplay aspect ratio             : 2.2:1\nFrame rate                       : 23.976 fps\nResolution                       : 24 bits\nColorimetry                      : 4:2:0\nScan type                        : Progressive\nBits/(Pixel*Frame)               : 0.145\nStream size                      : 599 MiB (66%)\nWriting library                  : DivX 5.2.1 (DrDivX 106) (UTC 2004-09-08)\n\nAudio\nID                               : 1\nFormat                           : AC-3\nFormat/Info                      : Audio Coding 3\nCodec ID                         : 2000\nDuration                         : 1h 47mn\nBit rate mode                    : Constant\nBit rate                         : 384 Kbps\nChannel(s)                       : 6 channels\nChannel positions                : Front: L C R, Surround: L R, LFE\nSampling rate                    : 48.0 KHz\nStream size                      : 295 MiB (33%)\nAlignment                        : Split accross interleaves\nInterleave, duration             : 42 ms (1.00 video frame)\nInterleave, preload duration     : 500 ms\n\nSOURCES: Original DVD (video adjusted , much brightness and contrasted) + ViSiON AC3 audiosource perfectly synced)  &lt;a href=&quot;\nhttp://www.imdb.com/title/tt0898367/&quot; rel=&quot;nofollow&quot; target=&quot;_NEW&quot;&gt;\nhttp://www.imdb.com/title/tt0898367/&lt;/a&gt;\n\nScreens: &lt;a href=&quot;\nhttp://www.postimg.com/image/13000/12073.jpg&quot; rel=&quot;nofollow&quot; target=&quot;_NEW&quot;&gt;\nhttp://www.postimg.com/image/13000/12073.jpg&lt;/a&gt; &lt;a href=&quot;\nhttp://www.postimg.com/image/13000/12074.jpg&quot; rel=&quot;nofollow&quot; target=&quot;_NEW&quot;&gt;\nhttp://www.postimg.com/image/13000/12074.jpg&lt;/a&gt; &lt;a href=&quot;\nhttp://www.postimg.com/image/13000/12075.jpg&quot; rel=&quot;nofollow&quot; target=&quot;_NEW&quot;&gt;\nhttp://www.postimg.com/image/13000/12075.jpg&lt;/a&gt; &lt;a href=&quot;\nhttp://www.postimg.com/image/13000/12076.jpg&quot; rel=&quot;nofollow&quot; target=&quot;_NEW&quot;&gt;\nhttp://www.postimg.com/image/13000/12076.jpg&lt;/a&gt; &lt;a href=&quot;\nhttp://www.postimg.com/image/13000/12077.jpg&quot; rel=&quot;nofollow&quot; target=&quot;_NEW&quot;&gt;\nhttp://www.postimg.com/image/13000/12077.jpg&lt;/a&gt;\n\nScreenCaps: &lt;a href=&quot;\nhttp://www.postimg.com/image/13000/12078.jpg&quot; rel=&quot;nofollow&quot; target=&quot;_NEW&quot;&gt;\nhttp://www.postimg.com/image/13000/12078.jpg&lt;/a&gt;\n\nThe Road (2009) DVDRip XviD-MAX Torrent Free Download &lt;a href=&quot;\nhttp://thepiratebay.se/user/extremezone/0/7&quot; rel=&quot;nofollow&quot; target=&quot;_NEW&quot;&gt;\nhttp://thepiratebay.se/user/extremezone/0/7&lt;/a&gt;","torrent":{"xt":"urn:btih:411af171ead0ee5b905a7752f17ce37a8f6f93f4","amp;dn":"The+Road+%282009%29+DVDRip+XviD-MAX","amp;tr":["udp%3A%2F%2Ftracker.openbittorrent.com%3A80","udp%3A%2F%2Fopen.demonii.com%3A1337","udp%3A%2F%2Ftracker.coppersurfer.tk%3A6969","udp%3A%2F%2Fexodus.desync.com%3A6969"],"infoHash":"411af171ead0ee5b905a7752f17ce37a8f6f93f4","infoHashBuffer":{"type":"Buffer","data":[65,26,241,113,234,208,238,91,144,90,119,82,241,124,227,122,143,111,147,244]},"announce":[],"urlList":[]}}